<?xml version="1.0" standalone="no"?><svg version="1.1" xmlns="http://www.w3.org/2000/svg" width="742.9777679443359" height="336.39830017089844"><svg x="222.0751953125" y="28.518966674804688" width="317.38792419433594" height="79.98103332519531"><path d="M8,26L146.19396209716797,26Q156.19396209716797,26,156.19396209716797,36L156.19396209716797,43.98103332519531Q156.19396209716797,53.98103332519531,166.19396209716797,53.98103332519531L304.38792419433594,53.98103332519531L166.19396209716797,53.98103332519531Q156.19396209716797,53.98103332519531,156.19396209716797,43.98103332519531L156.19396209716797,36Q156.19396209716797,26,146.19396209716797,26L8,26L8,26M18,22L18,30M304.38792419433594,49.98103332519531L294.38792419433594,53.98103332519531L304.38792419433594,57.98103332519531" fill="none" stroke="#3EA8DE" stroke-width="2"></path><text x="11" y="23" style="font-family: &quot;Open Sans&quot;, sans-serif; font-size: 14px; font-weight: normal; fill: rgb(215, 215, 217);">1</text><text x="293.67698669433594" y="50.98103332519531" style="font-family: &quot;Open Sans&quot;, sans-serif; font-size: 14px; font-weight: normal; fill: rgb(215, 215, 217);">*</text></svg><svg x="459.67992782592773" y="89.5" width="79.7831916809082" height="91.39830017089844"><path d="M8,65.39830017089844L27.3915958404541,65.39830017089844Q37.3915958404541,65.39830017089844,37.3915958404541,55.39830017089844L37.3915958404541,36Q37.3915958404541,26,47.3915958404541,26L66.7831916809082,26L47.3915958404541,26Q37.3915958404541,26,37.3915958404541,36L37.3915958404541,55.39830017089844Q37.3915958404541,65.39830017089844,27.3915958404541,65.39830017089844L8,65.39830017089844L8,65.39830017089844M18,61.39830017089844L18,69.39830017089844M66.7831916809082,22L56.7831916809082,26L66.7831916809082,30" fill="none" stroke="#3EA8DE" stroke-width="2"></path><text x="11" y="62.39830017089844" style="font-family: &quot;Open Sans&quot;, sans-serif; font-size: 14px; font-weight: normal; fill: rgb(215, 215, 217);">1</text><text x="56.0722541809082" y="23" style="font-family: &quot;Open Sans&quot;, sans-serif; font-size: 14px; font-weight: normal; fill: rgb(215, 215, 217);">*</text></svg><svg x="0" y="5.0189666748046875"><rect x="0" y="0" width="230.0751953125" height="33" fill="#222"></rect><text x="10" y="19.75" style="font-family: &quot;Open Sans&quot;, sans-serif; font-size: 13px; font-weight: bold; fill: rgb(255, 255, 255);">product</text></svg><svg x="0" y="38.01896667480469"><rect x="0" y="0" width="230.0751953125" height="33" fill="#4B4C53"></rect><text x="10" y="19.75" style="font-family: &quot;Open Sans&quot;, sans-serif; font-size: 13px; font-weight: bold; fill: rgb(215, 215, 217);">id</text><text x="173.31201171875" y="19.75" style="font-family: &quot;Open Sans&quot;, sans-serif; font-size: 13px; font-weight: bold; fill: rgb(215, 215, 217);">integer</text></svg><svg x="0" y="71.01896667480469"><rect x="0" y="0" width="230.0751953125" height="33" fill="#37383F"></rect><text x="10" y="19.75" style="font-family: &quot;Open Sans&quot;, sans-serif; font-size: 13px; fill: rgb(215, 215, 217);">product_name</text><text x="196.703125" y="19.75" style="font-family: &quot;Open Sans&quot;, sans-serif; font-size: 13px; fill: rgb(215, 215, 217);">text</text></svg><svg x="0" y="104.01896667480469"><rect x="0" y="0" width="230.0751953125" height="33" fill="#37383F"></rect><text x="10" y="19.75" style="font-family: &quot;Open Sans&quot;, sans-serif; font-size: 13px; fill: rgb(215, 215, 217);">price</text><text x="196.95703125" y="19.75" style="font-family: &quot;Open Sans&quot;, sans-serif; font-size: 13px; fill: rgb(215, 215, 217);">real</text></svg><svg x="0" y="137.0189666748047"><rect x="0" y="0" width="230.0751953125" height="33" fill="#37383F"></rect><text x="10" y="19.75" style="font-family: &quot;Open Sans&quot;, sans-serif; font-size: 13px; fill: rgb(215, 215, 217);">creation_date</text><text x="154.783203125" y="19.75" style="font-family: &quot;Open Sans&quot;, sans-serif; font-size: 13px; fill: rgb(215, 215, 217);">timestamp</text></svg><svg x="256.23510360717773" y="105.39830017089844"><rect x="0" y="0" width="211.44482421875" height="33" fill="#222"></rect><text x="10" y="19.75" style="font-family: &quot;Open Sans&quot;, sans-serif; font-size: 13px; font-weight: bold; fill: rgb(255, 255, 255);">employee</text></svg><svg x="256.23510360717773" y="138.39830017089844"><rect x="0" y="0" width="211.44482421875" height="33" fill="#4B4C53"></rect><text x="10" y="19.75" style="font-family: &quot;Open Sans&quot;, sans-serif; font-size: 13px; font-weight: bold; fill: rgb(215, 215, 217);">id</text><text x="154.681640625" y="19.75" style="font-family: &quot;Open Sans&quot;, sans-serif; font-size: 13px; font-weight: bold; fill: rgb(215, 215, 217);">integer</text></svg><svg x="256.23510360717773" y="171.39830017089844"><rect x="0" y="0" width="211.44482421875" height="33" fill="#37383F"></rect><text x="10" y="19.75" style="font-family: &quot;Open Sans&quot;, sans-serif; font-size: 13px; fill: rgb(215, 215, 217);">full_name</text><text x="178.07275390625" y="19.75" style="font-family: &quot;Open Sans&quot;, sans-serif; font-size: 13px; fill: rgb(215, 215, 217);">text</text></svg><svg x="256.23510360717773" y="204.39830017089844"><rect x="0" y="0" width="211.44482421875" height="33" fill="#37383F"></rect><text x="10" y="19.75" style="font-family: &quot;Open Sans&quot;, sans-serif; font-size: 13px; fill: rgb(215, 215, 217);">user_name</text><text x="178.07275390625" y="19.75" style="font-family: &quot;Open Sans&quot;, sans-serif; font-size: 13px; fill: rgb(215, 215, 217);">text</text></svg><svg x="256.23510360717773" y="237.39830017089844"><rect x="0" y="0" width="211.44482421875" height="33" fill="#37383F"></rect><text x="10" y="19.75" style="font-family: &quot;Open Sans&quot;, sans-serif; font-size: 13px; fill: rgb(215, 215, 217);">email</text><text x="178.07275390625" y="19.75" style="font-family: &quot;Open Sans&quot;, sans-serif; font-size: 13px; fill: rgb(215, 215, 217);">text</text></svg><svg x="256.23510360717773" y="270.39830017089844"><rect x="0" y="0" width="211.44482421875" height="33" fill="#37383F"></rect><text x="10" y="19.75" style="font-family: &quot;Open Sans&quot;, sans-serif; font-size: 13px; fill: rgb(215, 215, 217);">hashed_password</text><text x="178.07275390625" y="19.75" style="font-family: &quot;Open Sans&quot;, sans-serif; font-size: 13px; fill: rgb(215, 215, 217);">text</text></svg><svg x="256.23510360717773" y="303.39830017089844"><rect x="0" y="0" width="211.44482421875" height="33" fill="#37383F"></rect><text x="10" y="19.75" style="font-family: &quot;Open Sans&quot;, sans-serif; font-size: 13px; fill: rgb(215, 215, 217);">user_role</text><text x="178.07275390625" y="19.75" style="font-family: &quot;Open Sans&quot;, sans-serif; font-size: 13px; fill: rgb(215, 215, 217);">text</text></svg><svg x="526.4631195068359" y="0"><rect x="0" y="0" width="211.5146484375" height="33" fill="#222"></rect><text x="10" y="19.75" style="font-family: &quot;Open Sans&quot;, sans-serif; font-size: 13px; font-weight: bold; fill: rgb(255, 255, 255);">order_info</text></svg><svg x="526.4631195068359" y="33"><rect x="0" y="0" width="211.5146484375" height="33" fill="#37383F"></rect><text x="10" y="19.75" style="font-family: &quot;Open Sans&quot;, sans-serif; font-size: 13px; font-weight: bold; fill: rgb(215, 215, 217);">id</text><text x="154.75146484375" y="19.75" style="font-family: &quot;Open Sans&quot;, sans-serif; font-size: 13px; font-weight: bold; fill: rgb(215, 215, 217);">integer</text></svg><svg x="526.4631195068359" y="66"><rect x="0" y="0" width="211.5146484375" height="33" fill="#4B4C53"></rect><text x="10" y="19.75" style="font-family: &quot;Open Sans&quot;, sans-serif; font-size: 13px; fill: rgb(215, 215, 217);">product_id</text><text x="158.6552734375" y="19.75" style="font-family: &quot;Open Sans&quot;, sans-serif; font-size: 13px; fill: rgb(215, 215, 217);">integer</text></svg><svg x="526.4631195068359" y="99"><rect x="0" y="0" width="211.5146484375" height="33" fill="#4B4C53"></rect><text x="10" y="19.75" style="font-family: &quot;Open Sans&quot;, sans-serif; font-size: 13px; fill: rgb(215, 215, 217);">cashier_id</text><text x="158.6552734375" y="19.75" style="font-family: &quot;Open Sans&quot;, sans-serif; font-size: 13px; fill: rgb(215, 215, 217);">integer</text></svg><svg x="526.4631195068359" y="132"><rect x="0" y="0" width="211.5146484375" height="33" fill="#37383F"></rect><text x="10" y="19.75" style="font-family: &quot;Open Sans&quot;, sans-serif; font-size: 13px; fill: rgb(215, 215, 217);">order_status</text><text x="178.142578125" y="19.75" style="font-family: &quot;Open Sans&quot;, sans-serif; font-size: 13px; fill: rgb(215, 215, 217);">text</text></svg><svg x="526.4631195068359" y="165"><rect x="0" y="0" width="211.5146484375" height="33" fill="#37383F"></rect><text x="10" y="19.75" style="font-family: &quot;Open Sans&quot;, sans-serif; font-size: 13px; fill: rgb(215, 215, 217);">order_date</text><text x="136.22265625" y="19.75" style="font-family: &quot;Open Sans&quot;, sans-serif; font-size: 13px; fill: rgb(215, 215, 217);">timestamp</text></svg><svg x="526.4631195068359" y="198"><rect x="0" y="0" width="211.5146484375" height="33" fill="#37383F"></rect><text x="10" y="19.75" style="font-family: &quot;Open Sans&quot;, sans-serif; font-size: 13px; fill: rgb(215, 215, 217);">discount</text><text x="178.396484375" y="19.75" style="font-family: &quot;Open Sans&quot;, sans-serif; font-size: 13px; fill: rgb(215, 215, 217);">real</text></svg><svg x="526.4631195068359" y="231"><rect x="0" y="0" width="211.5146484375" height="33" fill="#37383F"></rect><text x="10" y="19.75" style="font-family: &quot;Open Sans&quot;, sans-serif; font-size: 13px; fill: rgb(215, 215, 217);">quantity</text><text x="158.6552734375" y="19.75" style="font-family: &quot;Open Sans&quot;, sans-serif; font-size: 13px; fill: rgb(215, 215, 217);">integer</text></svg></svg>